<svg width="207.216" height="207.216" viewBox="0 0 54.826 54.826" xmlns:xlink="http://www.w3.org/1999/xlink" xmlns="http://www.w3.org/2000/svg"><defs><linearGradient id="a"><stop offset="0" stop-color="#f41046"/><stop offset="1" stop-color="#f46f94"/></linearGradient><linearGradient xlink:href="#a" id="b" x1="66.774" y1="137.431" x2="189.397" y2="14.807" gradientUnits="userSpaceOnUse"/><clipPath clipPathUnits="userSpaceOnUse" id="c"><path class="powerclip" d="M69.3 80.322h71.07v54.633H69.3zm-24.096 28.493v7.522h120.638v-7.522z" fill="#00f" stroke-width="2.598"/></clipPath></defs><path d="M77.805 61.062h54.06c6.277 0 11.33 5.052 11.33 11.329v54.06c0 6.276-5.053 11.33-11.33 11.33h-54.06a11.304 11.304 0 0 1-11.329-11.33v-54.06c0-6.277 5.053-11.33 11.33-11.33z" fill="url(#b)" transform="matrix(.71464 0 0 .71464 -47.506 -43.637)"/><path clip-path="url(#c)" d="M74.3 85.321v38.044c0 3.651 2.94 6.59 6.592 6.59h47.887a6.577 6.577 0 0 0 6.591-6.59V85.32H80.892z" fill="#fff" transform="matrix(.71464 0 0 .71464 -47.506 -43.637)"/></svg>